<svg xmlns="http://www.w3.org/2000/svg" xmlns:xlink="http://www.w3.org/1999/xlink" contentStyleType="text/css" data-diagram-type="DESCRIPTION" height="594px" preserveAspectRatio="none" style="width:1716px;height:594px;background:#FFFFFF;" version="1.1" viewBox="0 0 1716 594" width="1716px" zoomAndPan="magnify"><title>Indexing Use Cases Across Roles - Drupal to Lucidworks</title><defs/><g><g class="title" data-source-line="27"><text fill="#000000" font-family="sans-serif" font-size="28" font-weight="bold" lengthAdjust="spacing" textLength="822.7461" x="440.077" y="37.0703">Indexing Use Cases Across Roles - Drupal to Lucidworks</text></g><!--cluster DrupalPlatform--><g class="cluster" data-entity="DrupalPlatform" data-source-line="35" data-uid="ent0005" id="cluster_DrupalPlatform"><path d="M125.08,62.3828 L356.205,62.3828 A3.75,3.75 0 0 1 358.705,64.8828 L365.705,101.3594 L939.84,101.3594 A2.5,2.5 0 0 1 942.34,103.8594 L942.34,485.8828 A2.5,2.5 0 0 1 939.84,488.3828 L125.08,488.3828 A2.5,2.5 0 0 1 122.58,485.8828 L122.58,64.8828 A2.5,2.5 0 0 1 125.08,62.3828" fill="none" style="stroke:#000000;stroke-width:1.5;"/><line style="stroke:#000000;stroke-width:1.5;" x1="122.58" x2="365.705" y1="101.3594" y2="101.3594"/><text fill="#000000" font-family="sans-serif" font-size="28" font-weight="bold" lengthAdjust="spacing" textLength="230.125" x="126.58" y="91.4531">Drupal Platform</text></g><!--cluster LucidworksPlatform--><g class="cluster" data-entity="LucidworksPlatform" data-source-line="43" data-uid="ent0011" id="cluster_LucidworksPlatform"><path d="M1064.84,250.3828 L1364.0783,250.3828 A3.75,3.75 0 0 1 1366.5783,252.8828 L1373.5783,289.3594 L1707.4,289.3594 A2.5,2.5 0 0 1 1709.9,291.8594 L1709.9,492.8828 A2.5,2.5 0 0 1 1707.4,495.3828 L1064.84,495.3828 A2.5,2.5 0 0 1 1062.34,492.8828 L1062.34,252.8828 A2.5,2.5 0 0 1 1064.84,250.3828" fill="none" style="stroke:#000000;stroke-width:1.5;"/><line style="stroke:#000000;stroke-width:1.5;" x1="1062.34" x2="1373.5783" y1="289.3594" y2="289.3594"/><text fill="#000000" font-family="sans-serif" font-size="28" font-weight="bold" lengthAdjust="spacing" textLength="298.2383" x="1066.34" y="279.4531">Lucidworks Platform</text><text fill="#000000" font-family="sans-serif" font-size="14" font-style="italic" lengthAdjust="spacing" textLength="148.5859" x="1315.827" y="304.8945">&#171;LucidworksPlatform&#187;</text></g><!--entity UC1--><g class="entity" data-entity="UC1" data-source-line="36" data-uid="ent0006" id="entity_UC1"><ellipse cx="307.2259" cy="148.3877" fill="#F1F1F1" rx="156.8359" ry="34.9749" style="stroke:#181818;stroke-width:2;"/><text fill="#000000" font-family="sans-serif" font-size="20" lengthAdjust="spacing" textLength="226.6504" x="193.9007" y="146.819">Submit or Update Node</text><text fill="#000000" font-family="sans-serif" font-size="20" lengthAdjust="spacing" textLength="185.8008" x="214.3255" y="170.3737">(e.g. Press Release)</text></g><!--entity UC2--><g class="entity" data-entity="UC2" data-source-line="37" data-uid="ent0007" id="entity_UC2"><ellipse cx="307.2295" cy="246.3787" fill="#F1F1F1" rx="128.4295" ry="28.0859" style="stroke:#181818;stroke-width:2;"/><text fill="#000000" font-family="sans-serif" font-size="20" lengthAdjust="spacing" textLength="221.4941" x="196.4824" y="254.6561">Trigger Indexing via UI</text></g><!--entity UC3--><g class="entity" data-entity="UC3" data-source-line="38" data-uid="ent0008" id="entity_UC3"><ellipse cx="307.2293" cy="345.3827" fill="#F1F1F1" rx="168.6493" ry="36.1299" style="stroke:#181818;stroke-width:2;"/><text fill="#000000" font-family="sans-serif" font-size="20" lengthAdjust="spacing" textLength="309.6582" x="152.4002" y="353.66">Trigger Indexing via CLI (Drush)</text></g><!--entity UC4--><g class="entity" data-entity="UC4" data-source-line="39" data-uid="ent0009" id="entity_UC4"><ellipse cx="307.2293" cy="444.3827" fill="#F1F1F1" rx="127.0993" ry="27.8199" style="stroke:#181818;stroke-width:2;"/><text fill="#000000" font-family="sans-serif" font-size="20" lengthAdjust="spacing" textLength="218.4766" x="197.9911" y="452.66">Trigger Indexing by ID</text></g><!--entity UC6--><g class="entity" data-entity="UC6" data-source-line="40" data-uid="ent0010" id="entity_UC6"><ellipse cx="793.1126" cy="345.3845" fill="#F1F1F1" rx="133.2326" ry="34.8017" style="stroke:#181818;stroke-width:2;"/><text fill="#000000" font-family="sans-serif" font-size="20" lengthAdjust="spacing" textLength="192.9199" x="696.6526" y="344.0728">Expose JSON Export</text><text fill="#000000" font-family="sans-serif" font-size="20" lengthAdjust="spacing" textLength="152.9297" x="716.6477" y="367.6275">(REST endpoint)</text></g><!--entity UC5--><g class="entity" data-entity="UC5" data-source-line="44" data-uid="ent0012" id="entity_UC5"><ellipse cx="1202.0131" cy="443.3837" fill="#F1F1F1" rx="89.9631" ry="36.0609" style="stroke:#181818;stroke-width:2;"/><text fill="#000000" font-family="sans-serif" font-size="20" lengthAdjust="spacing" textLength="123.916" x="1140.0551" y="440.2393">Schedule Job</text><text fill="#000000" font-family="sans-serif" font-size="20" lengthAdjust="spacing" textLength="120.1172" x="1141.9545" y="463.7939">(every 5min)</text></g><!--entity UC7--><g class="entity" data-entity="UC7" data-source-line="45" data-uid="ent0013" id="entity_UC7"><ellipse cx="1202.0066" cy="345.3861" fill="#F1F1F1" rx="123.6666" ry="27.1333" style="stroke:#181818;stroke-width:2;"/><text fill="#000000" font-family="sans-serif" font-size="20" lengthAdjust="spacing" textLength="210.6445" x="1096.6843" y="353.6635">Run Indexing Pipeline</text></g><!--entity UC8--><g class="entity" data-entity="UC8" data-source-line="46" data-uid="ent0014" id="entity_UC8"><ellipse cx="1540.2921" cy="351.3852" fill="#F1F1F1" rx="153.6121" ry="33.1224" style="stroke:#181818;stroke-width:2;"/><text fill="#000000" font-family="sans-serif" font-size="20" lengthAdjust="spacing" textLength="277.2461" x="1401.669" y="359.6626">Ingest into Fusion Collection</text></g><!--entity Editor--><g class="entity" data-entity="Editor" data-source-line="31" data-uid="ent0002" id="entity_Editor"><ellipse cx="40.787" cy="113.9328" fill="#F1F1F1" rx="8" ry="8" style="stroke:#181818;stroke-width:0.5;"/><path d="M40.787,121.9328 L40.787,148.9328 M27.787,129.9328 L53.787,129.9328 M40.787,148.9328 L27.787,163.9328 M40.787,148.9328 L53.787,163.9328" fill="none" style="stroke:#181818;stroke-width:0.5;"/><text fill="#000000" font-family="sans-serif" font-size="22" lengthAdjust="spacing" textLength="62.874" x="9.35" y="186.7023">Editor</text></g><!--entity Admin--><g class="entity" data-entity="Admin" data-source-line="32" data-uid="ent0003" id="entity_Admin"><ellipse cx="40.7886" cy="310.9328" fill="#F1F1F1" rx="8" ry="8" style="stroke:#181818;stroke-width:0.5;"/><path d="M40.7886,318.9328 L40.7886,345.9328 M27.7886,326.9328 L53.7886,326.9328 M40.7886,345.9328 L27.7886,360.9328 M40.7886,345.9328 L53.7886,360.9328" fill="none" style="stroke:#181818;stroke-width:0.5;"/><text fill="#000000" font-family="sans-serif" font-size="22" lengthAdjust="spacing" textLength="69.5771" x="6" y="383.7023">Admin</text></g><!--entity Fusion--><g class="entity" data-entity="Fusion" data-source-line="33" data-uid="ent0004" id="entity_Fusion"><ellipse cx="793.1062" cy="512.9328" fill="#F1F1F1" rx="8" ry="8" style="stroke:#181818;stroke-width:0.5;"/><path d="M793.1062,520.9328 L793.1062,547.9328 M780.1062,528.9328 L806.1062,528.9328 M793.1062,547.9328 L780.1062,562.9328 M793.1062,547.9328 L806.1062,562.9328" fill="none" style="stroke:#181818;stroke-width:0.5;"/><text fill="#000000" font-family="sans-serif" font-size="22" lengthAdjust="spacing" textLength="152.7324" x="716.74" y="585.7023">Fusion System</text></g><!--link Editor to UC1--><g class="link" data-entity-1="Editor" data-entity-2="UC1" data-source-line="49" data-uid="lnk15" id="link_Editor_UC1"><path d="M72.64,148.3828 C92.74,148.3828 114.64,148.3828 144.18,148.3828" fill="none" id="Editor-to-UC1" style="stroke:#181818;stroke-width:1;"/><polygon fill="#181818" points="150.18,148.3828,141.18,144.3828,145.18,148.3828,141.18,152.3828,150.18,148.3828" style="stroke:#181818;stroke-width:1;"/></g><!--link UC1 to UC6--><g class="link" data-entity-1="UC1" data-entity-2="UC6" data-source-line="50" data-uid="lnk16" id="link_UC1_UC6"><path d="M405.15,176.1128 C428.51,183.4428 453.25,191.7328 475.88,200.3828 C566.28,234.9628 662.0314,280.4138 725.0414,311.5638" fill="none" id="UC1-to-UC6" style="stroke:#181818;stroke-width:1;"/><polygon fill="#181818" points="730.42,314.2228,724.1247,306.6485,725.9378,312.007,720.5794,313.82,730.42,314.2228" style="stroke:#181818;stroke-width:1;"/><text fill="#000000" font-family="sans-serif" font-size="13" lengthAdjust="spacing" textLength="122.4146" x="506.88" y="210.8112">via Webhook (Auto)</text></g><!--link Admin to UC2--><g class="link" data-entity-1="Admin" data-entity-2="UC2" data-source-line="52" data-uid="lnk17" id="link_Admin_UC2"><path d="M75.86,315.6428 C87.5,306.7428 101.02,297.6828 114.58,291.3828 C141.86,278.7328 167.1832,270.8002 196.3432,264.0802" fill="none" id="Admin-to-UC2" style="stroke:#181818;stroke-width:1;"/><polygon fill="#181818" points="202.19,262.7328,192.5216,260.8561,197.3177,263.8556,194.3181,268.6517,202.19,262.7328" style="stroke:#181818;stroke-width:1;"/></g><!--link Admin to UC3--><g class="link" data-entity-1="Admin" data-entity-2="UC3" data-source-line="53" data-uid="lnk18" id="link_Admin_UC3"><path d="M75.82,345.3828 C92.77,345.3828 108.65,345.3828 132.16,345.3828" fill="none" id="Admin-to-UC3" style="stroke:#181818;stroke-width:1;"/><polygon fill="#181818" points="138.16,345.3828,129.16,341.3828,133.16,345.3828,129.16,349.3828,138.16,345.3828" style="stroke:#181818;stroke-width:1;"/></g><!--link Admin to UC4--><g class="link" data-entity-1="Admin" data-entity-2="UC4" data-source-line="54" data-uid="lnk19" id="link_Admin_UC4"><path d="M75.86,375.1328 C87.5,384.0328 101.02,393.0928 114.58,399.3828 C142.01,412.1228 167.5423,420.0796 196.8423,426.8096" fill="none" id="Admin-to-UC4" style="stroke:#181818;stroke-width:1;"/><polygon fill="#181818" points="202.69,428.1528,194.8139,422.2396,197.8169,427.0335,193.023,430.0365,202.69,428.1528" style="stroke:#181818;stroke-width:1;"/></g><!--link UC2 to UC6--><g class="link" data-entity-1="UC2" data-entity-2="UC6" data-source-line="55" data-uid="lnk20" id="link_UC2_UC6"><path d="M402.38,265.6528 C484.18,282.3828 596.6218,305.3899 681.4018,322.7399" fill="none" id="UC2-to-UC6" style="stroke:#181818;stroke-width:1;"/><polygon fill="#181818" points="687.28,323.9428,679.2647,318.2196,682.3815,322.9404,677.6608,326.0572,687.28,323.9428" style="stroke:#181818;stroke-width:1;"/></g><!--link UC3 to UC6--><g class="link" data-entity-1="UC3" data-entity-2="UC6" data-source-line="56" data-uid="lnk21" id="link_UC3_UC6"><path d="M476.11,345.3828 C536.16,345.3828 596.95,345.3828 653.6,345.3828" fill="none" id="UC3-to-UC6" style="stroke:#181818;stroke-width:1;"/><polygon fill="#181818" points="659.6,345.3828,650.6,341.3828,654.6,345.3828,650.6,349.3828,659.6,345.3828" style="stroke:#181818;stroke-width:1;"/></g><!--link UC4 to UC6--><g class="link" data-entity-1="UC4" data-entity-2="UC6" data-source-line="57" data-uid="lnk22" id="link_UC4_UC6"><path d="M401.24,425.3628 C483.05,408.6228 596.1617,385.4751 681.3317,368.0551" fill="none" id="UC4-to-UC6" style="stroke:#181818;stroke-width:1;"/><polygon fill="#181818" points="687.21,366.8528,677.591,364.7374,682.3114,367.8547,679.1941,372.5751,687.21,366.8528" style="stroke:#181818;stroke-width:1;"/></g><!--link Fusion to UC5--><g class="link" data-entity-1="Fusion" data-entity-2="UC5" data-source-line="59" data-uid="lnk23" id="link_Fusion_UC5"><path d="M869.69,528.0728 C942.66,509.4228 1046.7268,482.8182 1119.6768,464.1782" fill="none" id="Fusion-to-UC5" style="stroke:#181818;stroke-width:1;"/><polygon fill="#181818" points="1125.49,462.6928,1115.7799,461.0454,1120.6456,463.9306,1117.7604,468.7964,1125.49,462.6928" style="stroke:#181818;stroke-width:1;"/></g><!--link UC5 to UC6--><g class="link" data-entity-1="UC5" data-entity-2="UC6" data-source-line="60" data-uid="lnk24" id="link_UC5_UC6"><path d="M1124.32,424.9228 C1058.62,409.0928 969.4433,387.6175 898.1833,370.4575" fill="none" id="UC5-to-UC6" style="stroke:#181818;stroke-width:1;"/><polygon fill="#181818" points="892.35,369.0528,900.1634,375.0487,897.211,370.2234,902.0363,367.271,892.35,369.0528" style="stroke:#181818;stroke-width:1;"/><text fill="#000000" font-family="sans-serif" font-size="13" lengthAdjust="spacing" textLength="86.8105" x="959.34" y="382.1812">periodic fetch</text></g><!--link UC6 to UC7--><g class="link" data-entity-1="UC6" data-entity-2="UC7" data-source-line="62" data-uid="lnk25" id="link_UC6_UC7"><path d="M926.78,345.3828 C975.48,345.3828 1024.37,345.3828 1072.17,345.3828" fill="none" id="UC6-to-UC7" style="stroke:#181818;stroke-width:1;"/><polygon fill="#181818" points="1078.17,345.3828,1069.17,341.3828,1073.17,345.3828,1069.17,349.3828,1078.17,345.3828" style="stroke:#181818;stroke-width:1;"/></g><!--link UC7 to UC8--><g class="link" data-entity-1="UC7" data-entity-2="UC8" data-source-line="63" data-uid="lnk26" id="link_UC7_UC8"><path d="M1325.36,347.5728 C1345.36,347.9228 1360.301,348.1952 1380.921,348.5652" fill="none" id="UC7-to-UC8" style="stroke:#181818;stroke-width:1;"/><polygon fill="#181818" points="1386.92,348.6728,1377.9932,344.512,1381.9208,348.5831,1377.8497,352.5107,1386.92,348.6728" style="stroke:#181818;stroke-width:1;"/></g><!--SRC=[XLFVJo8n47xlNp7XHKnSL1GrXX0CwWL3F0AIUxcNPJlBDfHsqtPLlFY_ttIt2yjvkNiWp8zlfZFVDtjw16me-2qiHj7PsJaRfa9YxKMHK1pVXLf5XSKeYItQJbvi91iwuJnk7F8mqn8jn8h3NUA4LfOWsvmGLEZhs92ZJOp8VV8MxajdIIMPVWCkqXGDAWTnuhInq7xWWemJkECReKxWiR1K1lEjTRWv1g4S6eB2ct0Pk0oXdXDIIVrIepTmRueybk0qJ8f4y3TjrhR3XWPbx90M7Zz_ypkU1ADN6rViw9InldLRYGC6K6uAlyW2UDJApSK7GlU6_4_wbGD_oNPt_aXBoYzbdAn3HI3aIyrPwK-4mfTC96k5raBLPnfpxdUhtcJzqp0RgqRRQR2WhYEl4MbWD9LNeaH_fO8nYQdpCIDMcICD39RACLRjL4aGd5A7OBSEr6X1R8C-ZEMqPhn2Q8KNfyHrgaq5gc9rgDo_vg8rBvORuO2wBt9E-i2pvlXJjR6pwi3KU2vcA96mnsMlnUYyMVv2EwpGxAbu5J4inW7Q_IzqD1b3c-QpMTt-ufyroosCxmFoiebyUCyr_J_Dlp-3jusZ9MOFynT0nNDDXri_SCK-6tpjTJdaR1_VyTRlVmqE1d_GcMJ82xgD9xtqBBwYsKAF9AnVxpNHiqBjLvkA72KTOG1UDu5ZjKBh_EUdwq-IxbjMTnCARlnUrUr050rAfUWNx2kuBGd_WSjCwpMqxmgdZnahxojWkWVUnO5tIRswTI-oBnhsvSvcORZAxr6krtW_HoCq5mcaw9ACCH-jijTaNmVxXlq6]--></g></svg>