<?xml version="1.0" encoding="us-ascii" standalone="no"?><svg xmlns="http://www.w3.org/2000/svg" xmlns:xlink="http://www.w3.org/1999/xlink" contentStyleType="text/css" height="509px" preserveAspectRatio="none" style="width:1756px;height:509px;background:#FFFFFF;" version="1.1" viewBox="0 0 1756 509" width="1756px" zoomAndPan="magnify"><defs/><g><text fill="#000000" font-family="sans-serif" font-size="14" font-weight="bold" lengthAdjust="spacing" textLength="387" x="677.5" y="23.5352">Drupal-Lucidworks Integration: Component Overview</text><!--cluster Lucidworks Platform--><g id="cluster_Lucidworks Platform"><path d="M746.5,43.4883 L897.5,43.4883 A3.75,3.75 0 0 1 900,45.9883 L907,65.9766 L1210.5,65.9766 A2.5,2.5 0 0 1 1213,68.4766 L1213,500.3783 A2.5,2.5 0 0 1 1210.5,502.8783 L746.5,502.8783 A2.5,2.5 0 0 1 744,500.3783 L744,45.9883 A2.5,2.5 0 0 1 746.5,43.4883 " fill="none" style="stroke:#000000;stroke-width:1.5;"/><line style="stroke:#000000;stroke-width:1.5;" x1="744" x2="907" y1="65.9766" y2="65.9766"/><text fill="#000000" font-family="sans-serif" font-size="14" font-weight="bold" lengthAdjust="spacing" textLength="150" x="748" y="59.0234">Lucidworks Platform</text></g><!--cluster Drupal Platform--><g id="cluster_Drupal Platform"><path d="M8.5,164.7083 L125.5,164.7083 A3.75,3.75 0 0 1 128,167.2083 L135,187.1966 L717.5,187.1966 A2.5,2.5 0 0 1 720,189.6966 L720,387.3983 A2.5,2.5 0 0 1 717.5,389.8983 L8.5,389.8983 A2.5,2.5 0 0 1 6,387.3983 L6,167.2083 A2.5,2.5 0 0 1 8.5,164.7083 " fill="none" style="stroke:#000000;stroke-width:1.5;"/><line style="stroke:#000000;stroke-width:1.5;" x1="6" x2="135" y1="187.1966" y2="187.1966"/><text fill="#000000" font-family="sans-serif" font-size="14" font-weight="bold" lengthAdjust="spacing" textLength="116" x="10" y="180.2434">Drupal Platform</text></g><!--entity RestV2--><g id="elem_RestV2"><rect fill="#F1F1F1" height="69.4648" rx="2.5" ry="2.5" style="stroke:#181818;stroke-width:0.5;" width="202" x="995" y="191.4583"/><text fill="#000000" font-family="sans-serif" font-size="14" font-style="italic" lengthAdjust="spacing" textLength="71" x="1060.5" y="214.9934">&#171;external&#187;</text><text fill="#000000" font-family="sans-serif" font-size="14" lengthAdjust="spacing" textLength="182" x="1005" y="231.4817">Fusion REST V2 Connector</text><text fill="#000000" font-family="sans-serif" font-size="14" lengthAdjust="spacing" textLength="117" x="1005" y="247.97">(Fallback Option)</text></g><!--entity CustomConnector--><g id="elem_CustomConnector"><rect fill="#F1F1F1" height="52.9766" rx="2.5" ry="2.5" style="stroke:#181818;stroke-width:0.5;" width="199" x="760.5" y="199.7083"/><text fill="#000000" font-family="sans-serif" font-size="14" font-style="italic" lengthAdjust="spacing" textLength="64" x="828" y="223.2434">&#171;custom&#187;</text><text fill="#000000" font-family="sans-serif" font-size="14" lengthAdjust="spacing" textLength="179" x="770.5" y="239.7317">Fusion Custom Connector</text></g><!--entity Fusion Indexing Pipeline--><g id="elem_Fusion Indexing Pipeline"><rect fill="#F1F1F1" height="52.9766" rx="2.5" ry="2.5" style="stroke:#181818;stroke-width:0.5;" width="189" x="883.5" y="320.9283"/><text fill="#000000" font-family="sans-serif" font-size="14" font-style="italic" lengthAdjust="spacing" textLength="71" x="942.5" y="344.4634">&#171;external&#187;</text><text fill="#000000" font-family="sans-serif" font-size="14" lengthAdjust="spacing" textLength="169" x="893.5" y="360.9517">Fusion Indexing Pipeline</text></g><!--entity Fusion Collection--><g id="elem_Fusion Collection"><rect fill="#F1F1F1" height="52.9766" rx="2.5" ry="2.5" style="stroke:#181818;stroke-width:0.5;" width="139" x="908.5" y="433.8983"/><text fill="#000000" font-family="sans-serif" font-size="14" font-style="italic" lengthAdjust="spacing" textLength="71" x="942.5" y="457.4334">&#171;external&#187;</text><text fill="#000000" font-family="sans-serif" font-size="14" lengthAdjust="spacing" textLength="119" x="918.5" y="473.9217">Fusion Collection</text></g><!--entity Fusion Scheduler / Cron--><g id="elem_Fusion Scheduler / Cron"><rect fill="#F1F1F1" height="52.9766" rx="2.5" ry="2.5" style="stroke:#181818;stroke-width:0.5;" width="187" x="1002.5" y="78.4883"/><text fill="#000000" font-family="sans-serif" font-size="14" font-style="italic" lengthAdjust="spacing" textLength="71" x="1060.5" y="102.0234">&#171;external&#187;</text><text fill="#000000" font-family="sans-serif" font-size="14" lengthAdjust="spacing" textLength="167" x="1012.5" y="118.5117">Fusion Scheduler / Cron</text></g><!--entity Drupal CMS--><g id="elem_Drupal CMS"><rect fill="#F1F1F1" height="52.9766" rx="2.5" ry="2.5" style="stroke:#181818;stroke-width:0.5;" width="100" x="307" y="199.7083"/><text fill="#000000" font-family="sans-serif" font-size="14" font-style="italic" lengthAdjust="spacing" textLength="44" x="335" y="223.2434">&#171;core&#187;</text><text fill="#000000" font-family="sans-serif" font-size="14" lengthAdjust="spacing" textLength="80" x="317" y="239.7317">Drupal CMS</text></g><!--entity Drupal UI (Forms)--><g id="elem_Drupal UI (Forms)"><rect fill="#F1F1F1" height="52.9766" rx="2.5" ry="2.5" style="stroke:#181818;stroke-width:0.5;" width="141" x="198.5" y="320.9283"/><text fill="#000000" font-family="sans-serif" font-size="14" font-style="italic" lengthAdjust="spacing" textLength="64" x="237" y="344.4634">&#171;custom&#187;</text><text fill="#000000" font-family="sans-serif" font-size="14" lengthAdjust="spacing" textLength="121" x="208.5" y="360.9517">Drupal UI (Forms)</text></g><!--entity Drupal Search API--><g id="elem_Drupal Search API"><rect fill="#F1F1F1" height="52.9766" rx="2.5" ry="2.5" style="stroke:#181818;stroke-width:0.5;" width="142" x="22" y="320.9283"/><text fill="#000000" font-family="sans-serif" font-size="14" font-style="italic" lengthAdjust="spacing" textLength="63" x="61.5" y="344.4634">&#171;contrib&#187;</text><text fill="#000000" font-family="sans-serif" font-size="14" lengthAdjust="spacing" textLength="122" x="32" y="360.9517">Drupal Search API</text></g><!--entity Drupal JSON Export--><g id="elem_Drupal JSON Export"><rect fill="#F1F1F1" height="52.9766" rx="2.5" ry="2.5" style="stroke:#181818;stroke-width:0.5;" width="153" x="550.5" y="320.9283"/><text fill="#000000" font-family="sans-serif" font-size="14" font-style="italic" lengthAdjust="spacing" textLength="64" x="595" y="344.4634">&#171;custom&#187;</text><text fill="#000000" font-family="sans-serif" font-size="14" lengthAdjust="spacing" textLength="133" x="560.5" y="360.9517">Drupal JSON Export</text></g><!--entity Webhook Handler--><g id="elem_Webhook Handler"><rect fill="#F1F1F1" height="52.9766" rx="2.5" ry="2.5" style="stroke:#181818;stroke-width:0.5;" width="142" x="374" y="320.9283"/><text fill="#000000" font-family="sans-serif" font-size="14" font-style="italic" lengthAdjust="spacing" textLength="64" x="413" y="344.4634">&#171;custom&#187;</text><text fill="#000000" font-family="sans-serif" font-size="14" lengthAdjust="spacing" textLength="122" x="384" y="360.9517">Webhook Handler</text></g><g id="elem_GMN25"><path d="M1535,327.0983 L1535,367.7194 A0,0 0 0 0 1535,367.7194 L1749,367.7194 A0,0 0 0 0 1749,367.7194 L1749,337.0983 L1739,327.0983 L1555.54,327.0983 L1197.42,249.3383 L1547.54,327.0983 L1535,327.0983 A0,0 0 0 0 1535,327.0983 " fill="#FEFFDD" style="stroke:#181818;stroke-width:0.5;"/><path d="M1739,327.0983 L1739,337.0983 L1749,337.0983 L1739,327.0983 " fill="#FEFFDD" style="stroke:#181818;stroke-width:0.5;"/><text fill="#000000" font-family="sans-serif" font-size="13" lengthAdjust="spacing" textLength="193" x="1541" y="344.6666">&#128257; Fallback option if a custom</text><text fill="#000000" font-family="sans-serif" font-size="13" lengthAdjust="spacing" textLength="189" x="1541" y="359.9772">connector is not implemented</text></g><g id="elem_GMN28"><path d="M1229.5,327.0983 L1229.5,367.7194 L1500.5,367.7194 L1500.5,337.0983 L1490.5,327.0983 L1229.5,327.0983 " fill="#FEFFDD" style="stroke:#181818;stroke-width:0.5;"/><path d="M1490.5,327.0983 L1490.5,337.0983 L1500.5,337.0983 L1490.5,327.0983 " fill="#FEFFDD" style="stroke:#181818;stroke-width:1.0;"/><text fill="#000000" font-family="sans-serif" font-size="13" lengthAdjust="spacing" textLength="250" x="1235.5" y="344.6666">&#9989; Preferred option for webhook-based</text><text fill="#000000" font-family="sans-serif" font-size="13" lengthAdjust="spacing" textLength="174" x="1235.5" y="359.9772">partial updates from Drupal</text></g><!--link Drupal CMS to Drupal UI (Forms)--><g id="link_Drupal CMS_Drupal UI (Forms)"><path d="M337.91,253.0583 C323.14,273.0583 306.3724,295.7803 291.6224,315.7703 " fill="none" id="Drupal CMS-to-Drupal UI (Forms)" style="stroke:#181818;stroke-width:1.0;"/><polygon fill="#181818" points="288.06,320.5983,296.6223,315.7313,291.0287,316.575,290.185,310.9814,288.06,320.5983" style="stroke:#181818;stroke-width:1.0;"/></g><!--link Drupal CMS to Drupal Search API--><g id="link_Drupal CMS_Drupal Search API"><path d="M306.72,249.8983 C262.14,270.0283 202.5184,296.9592 155.8984,318.0092 " fill="none" id="Drupal CMS-to-Drupal Search API" style="stroke:#181818;stroke-width:1.0;"/><polygon fill="#181818" points="150.43,320.4783,160.2787,320.4202,154.987,318.4207,156.9865,313.129,150.43,320.4783" style="stroke:#181818;stroke-width:1.0;"/></g><!--link Drupal CMS to Drupal JSON Export--><g id="link_Drupal CMS_Drupal JSON Export"><path d="M407.47,249.4783 C453.11,269.6283 514.8217,296.8737 562.8317,318.0837 " fill="none" id="Drupal CMS-to-Drupal JSON Export" style="stroke:#181818;stroke-width:1.0;"/><polygon fill="#181818" points="568.32,320.5083,561.704,313.2125,563.7464,318.4878,558.4712,320.5302,568.32,320.5083" style="stroke:#181818;stroke-width:1.0;"/></g><!--link Drupal CMS to Webhook Handler--><g id="link_Drupal CMS_Webhook Handler"><path d="M376.09,253.0583 C390.86,273.0583 407.6276,295.7803 422.3776,315.7703 " fill="none" id="Drupal CMS-to-Webhook Handler" style="stroke:#181818;stroke-width:1.0;"/><polygon fill="#181818" points="425.94,320.5983,423.815,310.9814,422.9713,316.575,417.3777,315.7313,425.94,320.5983" style="stroke:#181818;stroke-width:1.0;"/></g><!--link Webhook Handler to CustomConnector--><g id="link_Webhook Handler_CustomConnector"><path d="M516.08,325.8083 C521.8,324.1583 527.5,322.5083 533,320.9283 C612.87,297.9083 697.9914,273.5185 763.6414,254.7385 " fill="none" id="Webhook Handler-to-CustomConnector" style="stroke:#181818;stroke-width:1.0;"/><polygon fill="#181818" points="769.41,253.0883,759.657,251.7178,764.6028,254.4634,761.8572,259.4093,769.41,253.0883" style="stroke:#181818;stroke-width:1.0;"/></g><!--link Fusion Scheduler / Cron to RestV2--><g id="link_Fusion Scheduler / Cron_RestV2"><path d="M1096,131.8383 C1096,149.2383 1096,166.3483 1096,185.2183 " fill="none" id="Fusion Scheduler / Cron-to-RestV2" style="stroke:#181818;stroke-width:1.0;"/><polygon fill="#181818" points="1096,191.2183,1100,182.2183,1096,186.2183,1092,182.2183,1096,191.2183" style="stroke:#181818;stroke-width:1.0;"/></g><!--link RestV2 to Drupal JSON Export--><g id="link_RestV2_Drupal JSON Export"><path d="M994.79,256.1583 C988.78,257.7883 982.81,259.3883 977,260.9283 C883.25,285.6483 780.5597,310.4007 709.5097,327.1607 " fill="none" id="RestV2-to-Drupal JSON Export" style="stroke:#181818;stroke-width:1.0;"/><polygon fill="#181818" points="703.67,328.5383,713.3479,330.3651,708.5364,327.3903,711.5112,322.5788,703.67,328.5383" style="stroke:#181818;stroke-width:1.0;"/></g><!--link CustomConnector to Drupal JSON Export--><g id="link_CustomConnector_Drupal JSON Export"><path d="M809.44,253.0583 C770.36,273.0583 721.8612,297.8748 682.8012,317.8648 " fill="none" id="CustomConnector-to-Drupal JSON Export" style="stroke:#181818;stroke-width:1.0;"/><polygon fill="#181818" points="677.46,320.5983,687.2941,320.0588,681.911,318.3204,683.6494,312.9373,677.46,320.5983" style="stroke:#181818;stroke-width:1.0;"/></g><!--link RestV2 to Fusion Indexing Pipeline--><g id="link_RestV2_Fusion Indexing Pipeline"><path d="M1062.19,261.3583 C1043.53,280.2083 1024.9517,298.9848 1007.7817,316.3248 " fill="none" id="RestV2-to-Fusion Indexing Pipeline" style="stroke:#181818;stroke-width:1.0;"/><polygon fill="#181818" points="1003.56,320.5883,1012.7349,317.0075,1007.0781,317.0354,1007.0502,311.3786,1003.56,320.5883" style="stroke:#181818;stroke-width:1.0;"/></g><!--link CustomConnector to Fusion Indexing Pipeline--><g id="link_CustomConnector_Fusion Indexing Pipeline"><path d="M885.6,253.0583 C905.4,273.0583 928.4498,296.3433 948.2298,316.3333 " fill="none" id="CustomConnector-to-Fusion Indexing Pipeline" style="stroke:#181818;stroke-width:1.0;"/><polygon fill="#181818" points="952.45,320.5983,948.9631,311.3874,948.9332,317.0441,943.2764,317.0143,952.45,320.5983" style="stroke:#181818;stroke-width:1.0;"/></g><!--link Fusion Indexing Pipeline to Fusion Collection--><g id="link_Fusion Indexing Pipeline_Fusion Collection"><path d="M978,374.1483 C978,391.9483 978,409.5483 978,427.4083 " fill="none" id="Fusion Indexing Pipeline-to-Fusion Collection" style="stroke:#181818;stroke-width:1.0;"/><polygon fill="#181818" points="978,433.4083,982,424.4083,978,428.4083,974,424.4083,978,433.4083" style="stroke:#181818;stroke-width:1.0;"/></g><!--link CustomConnector to GMN28--><g id="link_CustomConnector_GMN28"><path d="M947.68,253.1283 C957.55,255.8483 967.47,258.5083 977,260.9283 C1075.11,285.8483 1188.24,310.2883 1266.92,326.6083 " fill="none" id="CustomConnector-GMN28" style="stroke:#181818;stroke-width:1.0;stroke-dasharray:7.0,7.0;"/></g><!--SRC=[VPJFRXCn4CRlVefHBsq5snOE7AAg2aeR2A9DrENF0NfmTYU95QzjsTuc4UB00Hu0SKJYtVe4F0BZtKsosMOvHDhOt_ncvlFOfuV0kYBjG6zuFOhEpfwnxaH8tFwFejJcXij8veb85zhENSHjCXCU4vzRF35v9bdN2n-YufNpc45FPqOhL1uk1PzQda44bmK6di3R3GW6oYDjUw4L8LQ62Cawb7LJT8aL9knsO7YFzbxW0lG4N9bb8tN04wkTM-VWAgrdCPBxYRQPUmepCPr9-dcXfY2ssS5eKN0eqg8Zh1DZ8OKNw4vOro8Xa5mQtBmAfi33Zv_LzmjsUCfOqNwLFjhVOAVcohePnjnSACE3GvjkOhyYbYLxkPfAPCpmPCwd20SryAZgwG2-C81F_To5BcwludVmuJbbKehYjVsiZlfSoZ4HO5WuUNm7tC4jEa-wytDSUhIAoukB6gQNEw-pBQK8AHStQnIR52ixaGELuZ9uEn86fL1urvf3IqaW-coLnCaCqroYXLFesKV2hpLdgeDlk5AjzgxZ49feYoM_Mdy_WAD-c8lZkqOtbI36CEdmSZGeuvMtOhoZU1CFR-1gQRJrJSP77C-qdiDhcYdgOMURIjyfBeekzbNLBgfLrYwg5xT7rIoGQdfKSn0s3fwr7qzGbvF5M3LXhVKqnwbLk4Dg7RFzl7RvVmQs7bcRKiQKzWXZxSFTe5UewXJWxvzVts1ppNHnpK1CW4Dvu2H9DdK91yG1aHc96TrsJ1dIenFOZp8qdGTu-FqTHXOdQ2scwrGqyR0eJouQSqT407fJl20hSvFIo-LWOWbPshlDzmy0]--></g></svg>